<svg width="62" height="61" viewBox="0 0 62 61" fill="none" xmlns="http://www.w3.org/2000/svg">
<path d="M30.8 0C13.783 0 0 13.783 0 30.8C0 44.429 8.8165 55.9405 21.0595 60.0215C22.5995 60.291 23.177 59.367 23.177 58.5585C23.177 57.827 23.1385 55.4015 23.1385 52.822C15.4 54.2465 13.398 50.9355 12.782 49.203C12.4355 48.3175 10.934 45.584 9.625 44.8525C8.547 44.275 7.007 42.8505 9.5865 42.812C12.012 42.7735 13.7445 45.045 14.322 45.969C17.094 50.6275 21.5215 49.3185 23.2925 48.51C23.562 46.508 24.3705 45.1605 25.256 44.3905C18.403 43.6205 11.242 40.964 11.242 29.183C11.242 25.8335 12.4355 23.0615 14.399 20.9055C14.091 20.1355 13.013 16.9785 14.707 12.7435C14.707 12.7435 17.2865 11.935 23.177 15.9005C25.641 15.2075 28.259 14.861 30.877 14.861C33.495 14.861 36.113 15.2075 38.577 15.9005C44.4675 11.8965 47.047 12.7435 47.047 12.7435C48.741 16.9785 47.663 20.1355 47.355 20.9055C49.3185 23.0615 50.512 25.795 50.512 29.183C50.512 41.0025 43.3125 43.6205 36.4595 44.3905C37.576 45.353 38.5385 47.201 38.5385 50.0885C38.5385 54.208 38.5 57.519 38.5 58.5585C38.5 59.367 39.0775 60.3295 40.6175 60.0215C46.7328 57.9589 52.0469 54.0296 55.8111 48.7873C59.5754 43.545 61.6001 37.2538 61.6 30.8C61.6 13.783 47.817 0 30.8 0Z" fill="#5D370E"/>
</svg>
