<svg width="509" height="672" viewBox="0 0 509 672" fill="none" xmlns="http://www.w3.org/2000/svg">
<path fill-rule="evenodd" clip-rule="evenodd" d="M255.5 240C320.946 240 374 186.274 374 120C374 53.7258 320.946 0 255.5 0C190.054 0 137 53.7258 137 120C137 186.274 190.054 240 255.5 240ZM342.892 175.635C353.09 159.421 359 140.161 359 119.5C359 97.9769 352.587 77.9736 341.593 61.3498L286.105 101.56C288.593 106.328 290 111.75 290 117.5C290 123.555 288.44 129.245 285.701 134.191L342.892 175.635ZM337.777 183.043C319.707 206.944 291.688 222.695 260 223.923V151.709C267.954 150.673 275.057 146.928 280.352 141.43L337.777 183.043ZM251 223.879C219.607 222.357 191.898 206.576 174.025 182.78L230.829 141.616C236.105 147.013 243.136 150.685 251 151.709V223.879ZM168.932 175.356C158.842 159.199 153 140.042 153 119.5C153 98.0956 159.343 78.1943 170.226 61.6251L225.016 101.33C222.453 106.153 221 111.657 221 117.5C221 123.647 222.608 129.419 225.425 134.417L168.932 175.356ZM175.485 54.3217L230.24 94.0008C235.576 88.2679 242.84 84.3537 251 83.2908V15.121C220.45 16.6025 193.388 31.5873 175.485 54.3217ZM260 15.0774V83.2908C268.25 84.3655 275.584 88.3546 280.935 94.1913L336.311 54.063C318.211 31.2266 290.843 16.2722 260 15.0774ZM140 278H16V656H140V278ZM16 262H0V278V656V672H16H140H156V656V278V262H140H16ZM191 278H314V656H191V278ZM175 262H191H314H330V278V656V672H314H191H175V656V278V262ZM489 278H365V656H489V278ZM365 262H349V278V656V672H365H489H505V656V278V262H489H365ZM282 117.5C282 132.136 270.136 144 255.5 144C240.864 144 229 132.136 229 117.5C229 102.864 240.864 91 255.5 91C270.136 91 282 102.864 282 117.5ZM183 0.5C173.532 2.05937 159.226 6.91883 142.707 15.3547C87.514 43.5408 7.61643 111.653 0.946759 230C0.651745 235.235 0.5 240.568 0.5 246H16.5H167.1H200.5C189.944 241.364 180.483 235.987 172.069 230C101.492 179.779 104.588 86.6379 152.823 28.1804C161.483 17.6862 171.597 8.30974 183 0.5ZM121.23 46.9321C109.971 54.7851 98.3333 64.2286 87.0643 75.3753C51.8851 110.173 21.1204 160.772 16.9743 230H146.812C116.176 201.336 101.936 163.701 101.688 125.604C101.512 98.5224 108.393 71.2829 121.23 46.9321ZM364.422 14.661C348.907 6.95851 335.512 2.48429 326.5 1C337.219 8.34116 346.799 17.0667 355.102 26.8036C405.166 85.5117 408.818 180.99 336.008 231.5C327.954 237.087 318.965 242.124 309 246.5H340.58H494H509C509 241.413 508.867 236.414 508.608 231.5C502.243 110.827 419.821 42.1641 364.422 14.661ZM423.139 75.1643C410.684 62.8442 397.774 52.5917 385.41 44.2589C399.438 69.3726 406.996 97.8235 406.812 126.098C406.561 164.696 391.856 202.819 360.123 231.5H493.585C489.675 161.445 458.642 110.282 423.139 75.1643Z" fill="#D09999"/>
</svg>
